<svg width="594" height="595" viewBox="0 0 594 595" fill="none" xmlns="http://www.w3.org/2000/svg">
<path d="M404.068 90.7086C404.053 90.6699 404.026 90.6368 403.992 90.6134C403.957 90.5901 403.917 90.5776 403.875 90.5776C403.834 90.5776 403.793 90.5901 403.759 90.6134C403.724 90.6368 403.698 90.6699 403.682 90.7086C403.682 92.5531 401.009 93.6836 401.752 95.7661C402.078 96.6586 403.296 97.2833 403.979 96.3908C404.003 96.3469 404.017 96.2979 404.02 96.2477C404.022 96.1975 404.013 96.1475 403.993 96.1014C403.972 96.0554 403.942 96.0146 403.904 95.9823C403.865 95.9499 403.82 95.9268 403.771 95.9148H403.445C402.019 95.9148 402.019 94.9033 403.623 92.9398C403.866 92.6286 404.033 92.2647 404.11 91.8772C404.188 91.4897 404.173 91.0895 404.068 90.7086ZM410.365 87.7038C410.543 88.1798 411.315 88.0311 411.404 87.5551C411.403 86.5509 411.273 85.5511 411.018 84.5801C411.018 84.4696 410.974 84.3637 410.896 84.2856C410.818 84.2075 410.713 84.1636 410.602 84.1636C410.492 84.1636 410.386 84.2075 410.308 84.2856C410.23 84.3637 410.187 84.4696 410.187 84.5801C409.992 85.6204 410.053 86.6925 410.365 87.7038ZM396.822 85.4131C396.822 86.3353 396.821 88.1501 397.742 88.7153C397.786 88.7396 397.835 88.7535 397.885 88.7558C397.935 88.7581 397.985 88.7488 398.031 88.7287C398.077 88.7086 398.118 88.6781 398.15 88.6397C398.182 88.6012 398.205 88.5559 398.217 88.5071C398.071 87.5011 397.852 86.5069 397.564 85.5321C397.505 84.9668 396.822 84.9371 396.822 85.4131ZM393.97 81.8133C393.915 81.9041 393.898 82.013 393.923 82.1162C393.948 82.2195 394.013 82.3085 394.104 82.3637C394.195 82.4189 394.303 82.4359 394.406 82.4108C394.509 82.3856 394.598 82.3206 394.653 82.2298C395.099 81.6348 397.623 79.8796 397.92 79.2548C397.959 79.2079 397.984 79.1511 397.992 79.0908C398.001 79.0304 397.992 78.969 397.967 78.9134C397.943 78.8577 397.903 78.8101 397.853 78.7758C397.802 78.7415 397.744 78.722 397.683 78.7193C396.049 78.6896 394.624 80.5341 393.97 81.8133ZM410.662 77.9161C412.147 78.0946 412.919 79.2846 413.632 80.4151C413.681 80.5015 413.758 80.5689 413.85 80.6064C413.943 80.6439 414.045 80.6494 414.14 80.622C414.236 80.5946 414.32 80.5359 414.378 80.4553C414.437 80.3747 414.467 80.2767 414.463 80.1771C414.463 78.2433 412.355 77.0533 410.602 77.0236C410.068 76.9938 410.097 77.8566 410.662 77.9161ZM440.362 178.501C446.747 178.114 453.014 176.299 459.399 175.734C459.904 175.734 459.904 174.871 459.399 174.931C452.955 175.501 446.573 176.646 440.332 178.352L440.362 178.501ZM409.622 179.78C410.097 179.78 409.89 178.977 409.414 179.036C402.791 180.078 396.138 181.268 389.545 182.517C389.367 182.517 389.545 182.844 389.545 182.844C396.287 181.922 402.999 180.94 409.622 179.78ZM311.672 349.355L264.33 316.333L255.36 331.297L318.413 373.066L371.22 275.159L356.014 268.019L311.672 349.355Z" fill="black"/>
<path d="M391.832 232.289C391.03 230.266 390.644 230.534 388.505 230.087C384.971 229.314 381.407 228.63 377.843 227.916C366.795 225.684 355.954 221.966 345.173 218.991C334.272 216.062 323.617 212.282 313.305 207.686C310.335 206.377 307.603 205.097 304.87 203.55C303.237 202.598 299.851 199.623 298.039 199.742C297 199.742 297.505 199.742 296.317 200.754C294.089 202.836 291.921 204.889 289.575 206.704C280.398 213.865 270.631 220.235 260.38 225.744C244.617 235.316 228.202 243.766 211.256 251.031C211.138 251.063 211.034 251.133 210.959 251.23C210.884 251.326 210.842 251.444 210.84 251.567C209.319 269.23 210.969 287.024 215.711 304.105C220.138 321.33 225.461 338.311 231.66 354.978C242.708 385.234 259.192 413.347 283.575 434.5C309.028 456.604 331.095 460.471 331.303 460.263C340.233 453.454 348.417 445.715 355.717 437.177C372.634 418.274 385.817 396.327 394.564 372.501C399.898 357.657 403.243 342.171 404.514 326.448C406.177 305.623 403.207 285.065 399.613 264.449C398.176 253.48 395.568 242.699 391.832 232.289ZM399.673 351.289C395.651 370.882 388.027 389.555 377.19 406.356C349.895 446.638 331.214 459.103 330.917 459.311C303.337 449.948 279.26 432.389 261.894 408.974C253.692 398.17 246.644 386.534 240.867 374.256C234.5 359.936 229.034 345.23 224.502 330.226C219.571 315.905 215.748 301.224 213.068 286.315C211.766 278.39 211.16 270.367 211.256 262.336C211.256 260.432 211.612 252.162 211.583 252.192C211.88 251.686 233.709 242.344 242.916 237.108C255.42 229.849 268.369 223.126 280.368 214.915C285.623 211.434 290.589 207.534 295.218 203.253C296.881 201.706 297.534 200.903 299.792 201.825C301.366 202.45 310.691 207.775 313.958 209.114C327.08 214.655 340.603 219.19 354.41 222.68C361.627 224.732 368.844 227.083 376.18 228.63C380.827 229.356 385.428 230.35 389.961 231.605C391.654 232.676 395.039 246.212 395.901 249.782C397.505 257.16 398.693 264.657 399.97 272.035C404.454 298.572 405.672 324.841 399.673 351.348V351.289ZM194.98 109.897C194.936 109.947 194.906 110.008 194.894 110.074C194.882 110.139 194.889 110.207 194.914 110.269C194.939 110.331 194.98 110.385 195.034 110.424C195.088 110.464 195.151 110.487 195.218 110.492C195.761 110.424 196.266 110.176 196.654 109.788C197.041 109.4 197.288 108.895 197.356 108.35C197.356 107.845 195.545 105.613 195.248 104.602C195.229 104.549 195.195 104.504 195.15 104.472C195.105 104.439 195.051 104.422 194.995 104.422C194.94 104.422 194.886 104.439 194.84 104.472C194.795 104.504 194.761 104.549 194.743 104.602C194.475 105.465 196.495 107.904 196.376 108.559C196.257 109.213 195.426 109.451 194.98 109.897ZM200.445 100.258C200.163 101.223 200.042 102.229 200.089 103.233C200.089 104.096 201.425 104.096 201.455 103.233C201.589 102.23 201.477 101.209 201.128 100.258C201.095 100.196 201.046 100.144 200.986 100.107C200.926 100.071 200.857 100.052 200.787 100.052C200.716 100.052 200.647 100.071 200.587 100.107C200.527 100.144 200.478 100.196 200.445 100.258ZM188.357 100.169C188.081 101.141 188.081 102.172 188.357 103.144C188.357 103.769 189.545 103.68 189.486 103.144C189.426 102.609 189.278 101.3 189.159 100.377C189.187 100.271 189.171 100.158 189.115 100.063C189.059 99.9679 188.968 99.8991 188.862 99.8715C188.756 99.8439 188.643 99.8597 188.548 99.9155C188.453 99.9713 188.385 100.063 188.357 100.169ZM185.833 99.336C186.308 98.7113 188.803 96.7478 189.159 96.1825C189.22 96.1237 189.26 96.0465 189.272 95.9629C189.285 95.8792 189.27 95.7937 189.23 95.7194C189.189 95.6451 189.125 95.5862 189.048 95.5516C188.971 95.5171 188.885 95.5088 188.803 95.528C187.218 96.1118 185.892 97.2398 185.06 98.7113C184.734 99.1873 185.476 99.7525 185.833 99.336ZM199.851 95.885C200.931 96.4291 201.93 97.1198 202.821 97.9378C202.879 97.9973 202.954 98.0379 203.035 98.0545C203.117 98.0711 203.201 98.0628 203.278 98.0308C203.355 97.9988 203.42 97.9445 203.466 97.8748C203.511 97.8052 203.535 97.7235 203.534 97.6403C203.534 96.8668 200.564 95.1413 199.762 95.2008C199.689 95.2307 199.628 95.2838 199.589 95.3519C199.55 95.4199 199.534 95.4992 199.544 95.5772C199.554 95.6553 199.59 95.7278 199.645 95.7834C199.701 95.8391 199.773 95.8748 199.851 95.885ZM186.011 114.628H185.744C185.744 116.532 189.961 120.399 195.574 117.989C195.842 117.989 195.574 117.424 195.366 117.513C193.716 118.201 191.877 118.289 190.169 117.762C188.46 117.235 186.989 116.126 186.011 114.628ZM72.2302 365.926C62.3995 366.908 52.3312 365.361 42.5302 366.58C42.5302 366.58 42.3223 366.759 42.3223 366.848C41.545 374.961 41.7045 383.137 42.7975 391.213C42.8036 391.287 42.8279 391.358 42.8681 391.42C42.9084 391.482 42.9634 391.533 43.0281 391.568C43.0929 391.604 43.1655 391.622 43.2393 391.623C43.313 391.623 43.3858 391.605 43.4509 391.57C53.0143 392.076 63.0232 391.749 72.6163 391.303C72.8836 391.303 73.0024 390.708 73.0024 390.648C73.29 382.524 73.1314 374.39 72.5272 366.283C72.5313 366.24 72.5268 366.196 72.5141 366.155C72.5013 366.114 72.4806 366.076 72.4529 366.042C72.4253 366.009 72.3914 365.982 72.3532 365.962C72.315 365.942 72.2732 365.93 72.2302 365.926ZM43.4212 374.524C43.4212 372.025 43.4212 369.526 43.243 366.997C52.644 367.48 62.0651 367.41 71.458 366.789C71.2251 369.688 71.1557 372.598 71.2501 375.505C61.9967 374.704 52.7068 374.406 43.4212 374.613V374.524ZM44.0449 390.559C43.5994 385.591 43.54 380.652 43.4806 375.684C47.8762 375.684 52.3906 375.862 56.6674 375.981C56.3102 380.657 56.5799 385.36 57.4693 389.964C52.983 389.773 48.4887 390.002 44.0449 390.648V390.559ZM58.8949 390.053C58.8949 387.405 58.2118 377.945 57.8257 375.892C62.251 375.892 71.2204 376.636 71.2501 376.636C71.2501 381.158 71.6956 385.71 71.7847 390.172C67.6564 390.47 63.2905 390.261 58.984 390.142L58.8949 390.053Z" fill="black"/>
<path d="M577.131 385.858C576.517 381.762 574.501 378.007 571.428 375.237C567.716 372.411 562.785 372.887 558.42 373.035C551.886 373.244 538.431 374.523 538.431 374.493C536.174 368.156 534.184 361.671 531.571 355.513C529.775 350.27 526.031 345.923 521.116 343.375C516.305 341.292 493.733 342.899 483.279 343.851C491.149 317.79 491.565 281.763 491.565 274.801C492.655 274.066 493.593 273.126 494.327 272.034C496.673 268.137 495.04 262.128 494.683 257.933C493.674 246.539 493.05 234.966 491.446 223.631C494.48 220.539 497.133 217.093 499.346 213.367C506.534 201.259 506.563 187.782 503.237 174.365C499.911 160.948 490.525 150.565 479.982 141.462C469.509 131.934 456.497 125.66 442.53 123.403C441.094 120.889 439.434 118.509 437.57 116.293L434.957 117.81C434.957 113.794 433.293 96.5985 433.293 96.5985C435.729 95.944 440.54 88.8933 441.283 83.7168C441.638 78.6733 440.758 73.6191 438.719 68.9941C436.679 64.3691 433.542 60.3133 429.581 57.1798C418.592 48.2548 396.911 52.4495 392.129 56.079C390.816 57.1175 389.298 57.8664 387.676 58.2765C386.053 58.6867 384.362 58.7489 382.714 58.459C382.714 58.459 386.694 62.4455 384.259 63.1893C381.823 63.933 380.16 59.887 380.16 59.887C379.596 67.979 382.833 70.002 382.833 70.002C393.495 81.4855 401.544 72.2928 401.544 72.2928C401.544 72.2928 402.643 68.7228 414.107 71.311C415.584 71.522 416.999 72.0435 418.26 72.8412C419.521 73.6389 420.599 74.6947 421.423 75.9394C422.248 77.1841 422.8 78.5894 423.044 80.0631C423.288 81.5369 423.218 83.0456 422.839 84.4903L424.294 85.0853C424.841 84.2887 425.458 83.542 426.136 82.854C432.61 78.3618 434.274 85.1745 434.274 85.1745C435.58 90.708 428.779 92.3145 428.779 92.3145C428.957 99.99 427.561 101.24 427.561 101.24C422.037 107.874 416.424 100.674 416.424 100.674C415.184 99.2433 413.621 98.1296 411.864 97.4258C410.108 96.7221 408.209 96.4486 406.326 96.6283C399.317 96.9258 400.386 99.157 397.416 101.329C395.545 102.697 393.644 101.15 392.486 99.871C392.486 97.3423 391.476 87.4355 390.912 84.996V76.3388C388.832 75.73 386.934 74.6161 385.387 73.096C382.417 82.021 388.743 84.758 390.496 85.3828C390.704 88.09 389.724 108.707 393.466 116.442C394.467 118.593 395.983 120.462 397.879 121.884C399.776 123.306 401.994 124.237 404.336 124.593C404.009 126.349 403.683 129.264 403.623 130.067C396.317 131.138 390.407 135.839 384.734 140.272C377.928 145.481 371.615 151.307 365.874 157.675C355.533 168.917 348.807 183.014 346.569 198.135L336.382 195.16C336.53 194.506 336.599 193.837 336.59 193.167C336.581 191.97 336.212 190.803 335.53 189.82C334.849 188.836 333.887 188.082 332.771 187.654C331.655 187.227 330.435 187.147 329.273 187.424C328.11 187.702 327.058 188.324 326.255 189.21C325.669 190.024 325.245 190.943 325.007 191.918C325.007 191.918 307.959 184.361 299.436 180.702C297.626 179.528 295.426 179.122 293.317 179.571C290.055 181.32 287.16 183.684 284.793 186.533V186.354C281.823 182.695 275.289 182.993 274.339 188.318C274.154 189.872 274.401 191.447 275.052 192.87C273.567 193.97 272.082 195.131 270.359 196.261C266.201 185.968 262.251 175.228 255.509 166.511C249.906 159.048 243.149 152.53 235.491 147.203C224.988 139.707 212.327 135.852 199.436 136.226L198.663 134.351C198.663 133.132 198.426 131.912 198.277 130.722C207.93 131.525 212.949 116.977 212.949 116.977C213.289 119.49 213.035 122.048 212.207 124.445C212.207 124.445 222.008 110.343 216.216 86.9298C210.425 63.5165 189.486 68.4253 189.486 68.4253C164.627 53.9965 151.708 79.8493 151.708 79.8493C136.561 116.561 163.588 131.912 163.588 131.912C160.974 129.948 161.806 125.545 161.806 125.545C163.162 127.464 164.936 129.048 166.995 130.177C169.053 131.306 171.341 131.95 173.686 132.061C173.686 132.983 173.359 133.994 173.27 135.036L172.646 137.237C146.778 146.37 123.998 163.179 115.117 190.133C110.9 202.895 110.633 216.164 117.048 228.272C122.438 238.099 131.323 245.534 141.936 249.097C141.808 250.84 142.081 252.588 142.735 254.208C143.389 255.828 144.407 257.275 145.708 258.439C143.689 259.361 138.491 263.109 135.521 277.984C134.304 284.113 132.046 294.823 129.581 306.455C116.602 296.281 97.5349 280.751 97.2379 280.989C69.3793 303.45 14.9986 350.812 14.9986 350.872C14.9394 350.92 14.8959 350.985 14.8737 351.059C14.8515 351.132 14.8515 351.21 14.8738 351.284C14.8961 351.357 14.9396 351.422 14.9988 351.47C15.0581 351.519 15.1303 351.549 15.2065 351.556C19.6912 351.943 24.1165 352.211 28.72 352.359C28.72 379.997 31.0366 435.659 31.1554 435.659H20.7901C20.5824 440.327 20.7612 445.004 21.3247 449.642C41.8177 449.642 119.008 449.106 146.48 448.571C147.372 461.69 148.47 477.458 148.47 477.458C146.659 478.172 138.877 482.813 136.442 483.884C133.175 485.312 130.502 487.067 130.918 491.024C131.057 491.18 131.229 491.302 131.423 491.381C142.127 492.185 152.889 491.766 163.499 490.131C163.734 490.055 163.934 489.896 164.063 489.685C164.909 486.68 164.909 483.498 164.063 480.492L177.339 425.158C179.299 417.333 186.516 386.125 188.298 378.42C195.782 378.374 203.258 377.918 210.692 377.052C213.662 386.155 221.978 420.963 225.304 428.4C228.631 435.838 228.987 438.902 229.047 438.932C237.511 441.312 244.52 444.316 254.678 435.957C254.768 435.866 254.891 435.815 255.019 435.815C255.147 435.815 255.27 435.866 255.361 435.957C255.451 436.047 255.502 436.171 255.502 436.299C255.502 436.427 255.451 436.55 255.361 436.641C249.243 443.216 236.323 444.078 228.957 439.14L241.877 477.19C241.066 480.995 241.066 484.928 241.877 488.733C241.877 488.971 261.301 488.733 270.834 488.465C271.131 488.465 271.369 487.87 271.369 487.811C271.455 486.332 271.096 484.861 270.339 483.588C269.582 482.315 268.462 481.299 267.122 480.671C265.399 479.689 257.648 475.97 255.569 474.929V430.78C259.277 435.671 263.358 440.266 267.775 444.525C277.932 453.766 288.862 462.117 300.445 469.485C310.84 476.476 321.8 483.408 333.888 487.008C334.125 487.008 365.845 466.599 382.685 441.46V452.914C384.024 454.297 385.688 455.32 387.526 455.889C387.764 458.358 388.141 460.811 388.654 463.237C384.318 466.212 377.636 470.734 376.507 476.149C376.366 476.647 376.33 477.168 376.402 477.68C376.473 478.193 376.651 478.684 376.923 479.124C375.378 486.532 392.04 485.074 395.604 484.598C400.237 483.973 416.394 483.051 413.662 474.751C413.662 474.751 414.523 464.338 411.612 462.523C411.879 460.121 411.879 457.697 411.612 455.294C415.77 454.402 418.681 453.509 418.681 453.509L422.364 361.284C429.225 396.687 457.143 456.246 457.143 456.246C459.287 456.559 461.45 456.718 463.617 456.722C464.456 458.778 465.449 460.766 466.587 462.672C464.3 464.844 452.598 476.03 458.895 479.868C460.261 487.186 471.755 483.11 476.002 481.296C478.675 480.165 494.891 472.371 489.753 468.116C489.753 468.116 485.922 458.864 484.615 458.358C484.36 455.924 483.821 453.528 483.011 451.218C484.544 450.255 485.968 449.128 487.258 447.857C487.258 447.857 484.288 430.691 481.318 413.436C496.883 413.885 512.456 412.96 527.858 410.669C528.066 410.669 528.215 410.372 528.244 410.163C528.244 406.177 528.512 401.953 531.6 399.037C534.365 396.781 537.673 395.293 541.194 394.723C550.579 392.7 554.618 399.007 556.994 406.95C556.994 407.159 571.695 406.266 578.823 406.534C579.21 406.534 579.358 405.701 579.358 405.612C579.316 398.967 578.57 392.345 577.131 385.858ZM403.92 70.478C399.94 72.7688 394.862 69.3475 393.644 65.4503C393.644 65.242 393.882 65.0933 394 65.3015C394.951 67.027 398.752 71.43 403.683 69.6153C403.92 69.4665 404.247 70.2698 403.92 70.478ZM474.814 138.606C485.209 146.519 496.139 156.634 500.653 169.189C505.167 181.743 506.415 197.362 500.208 209.768C494.202 220.981 484.715 229.931 473.181 235.263C459.976 241.347 445.6 244.455 431.066 244.367C430.99 244.337 430.905 244.337 430.828 244.367C428.051 238.721 424.792 233.326 421.087 228.242C437.753 217.584 454.974 207.822 472.676 198.998C472.745 198.956 472.8 198.893 472.832 198.819C472.864 198.744 472.872 198.661 472.854 198.582C471.041 192.458 469.837 186.17 469.26 179.809C469.26 179.542 468.815 179.512 468.815 179.809C468.953 184.894 469.63 189.951 470.834 194.893C471.428 197.451 472.854 197.868 470.656 199.147C466.379 201.378 438.491 216.223 429.076 221.995C428.66 216.937 427.264 193.435 427.324 193.375C431.393 186.563 446.807 158.479 451.084 151.725C451.117 151.692 451.143 151.653 451.161 151.609C451.179 151.566 451.189 151.519 451.189 151.472C451.189 151.425 451.179 151.379 451.161 151.335C451.143 151.292 451.117 151.253 451.084 151.22C449.283 148.28 447.117 145.581 444.639 143.187C447.948 140.604 451.534 138.399 455.331 136.612C455.658 136.612 456.044 136.345 455.806 135.988C453.376 132.07 450.528 128.429 447.312 125.129C457.285 127.663 466.622 132.253 474.725 138.606H474.814ZM414.226 241.957C408.613 246.985 408.286 244.099 408.138 243.177C410.221 242.068 412.148 240.687 413.87 239.071C413.87 239.071 413.691 238.595 413.543 238.714C412.325 239.547 405.524 245.289 405.524 241.868C407.735 239.121 410.29 236.671 413.127 234.579C412.711 233.776 411.226 234.579 410.84 229.611C412.712 231.03 414.997 231.793 417.345 231.783C418.752 231.855 420.149 231.503 421.354 230.771C422.437 233.031 423.668 235.217 425.037 237.316C423.166 239.118 421.182 240.797 419.097 242.344C417.226 243.653 413.157 246.896 410.781 245.319C412.151 244.413 413.46 243.42 414.701 242.344C414.761 242.165 414.315 241.808 414.137 241.957H414.226ZM446.54 124.95C447.639 126.765 453.608 134.143 455.123 136.226C451.016 137.562 447.33 139.952 444.431 143.157L450.668 151.339C442.768 164.934 433.472 178.114 427.294 192.721C429.455 169.788 434.157 147.168 441.312 125.278L442.382 124.147L446.54 124.95ZM437.422 116.977C438.639 119.298 440.392 121.261 441.669 123.641C437.689 127.806 433.293 131.436 429.106 135.541C427.535 131.926 425.541 128.511 423.166 125.367C428.23 123.164 433.015 120.368 437.422 117.037V116.977ZM420.849 123.612C430.205 121.559 432.551 109.599 433.145 102.281C433.145 103.768 433.739 114.181 434.184 117.929C434.168 117.998 434.168 118.069 434.184 118.138L422.631 124.95C421.352 127.3 420.259 129.747 419.364 132.269C418.363 129.618 417.172 127.043 415.8 124.564C417.493 124.355 419.127 124.058 420.849 123.671V123.612ZM418.978 133.608C418.966 133.67 418.967 133.734 418.98 133.796C418.993 133.859 419.018 133.918 419.054 133.97C419.09 134.023 419.136 134.068 419.189 134.102C419.242 134.137 419.302 134.161 419.364 134.173C419.427 134.184 419.491 134.184 419.553 134.171C419.615 134.158 419.674 134.132 419.726 134.096C419.779 134.061 419.823 134.015 419.858 133.961C419.893 133.908 419.917 133.849 419.928 133.786C420.819 131.079 422.126 128.461 422.898 125.754C424.549 129.384 426.538 132.851 428.838 136.107C432.94 133.153 436.803 129.88 440.392 126.319C430.62 147.947 426.938 178.887 426.373 189.062C423.997 180.137 413.394 143.782 409.474 134.946C410.472 135.571 411.6 135.958 412.771 136.077C413.513 134.798 414.909 126.944 415.741 124.772C415.8 125.218 418.295 131.912 418.978 133.667V133.608ZM405.227 107.844C405.871 108.035 406.548 108.088 407.214 108C407.88 107.913 408.521 107.687 409.094 107.337C409.668 106.986 410.162 106.52 410.544 105.967C410.927 105.413 411.19 104.786 411.315 104.125C411.315 103.739 412.117 103.947 412.058 104.334C411.197 109.778 406.118 109.361 405.138 108.052C405.078 108.023 405.138 107.904 405.227 107.904V107.844ZM405.049 124.683C408.427 125.171 411.858 125.171 415.236 124.683C413.877 128.088 412.804 131.6 412.028 135.184C411.137 134.589 405.91 131.555 404.306 130.484C404.336 130.424 404.93 126.825 405.049 124.742V124.683ZM403.92 130.9C405.313 132.207 406.847 133.355 408.494 134.322C411.078 144.228 423.344 181.743 425.75 190.847C422.037 185.551 402.227 164.072 397.267 157.705C398.702 154.504 399.932 151.215 400.95 147.858C398.35 146.848 395.653 146.11 392.901 145.656C395.881 141.407 398.25 136.761 399.94 131.852C401.158 131.436 403.92 130.9 403.92 130.9ZM347.223 198.195C349.846 183.333 356.517 169.486 366.498 158.181C371.286 152.788 376.522 147.812 382.15 143.306C387.189 138.631 392.971 134.831 399.257 132.061C396.673 136.493 394.208 141.789 391.387 146.132C391.149 146.519 397.535 147.739 400.089 148.631C399.525 149.583 396.97 156.188 396.228 157.973C396.228 158.181 421.77 186.83 426.433 193.405C426.047 197.987 428.69 222.322 428.72 222.352C425.958 224.048 423.017 225.981 420.374 227.826C420.136 227.826 421.027 229.403 421.295 229.968C420.195 230.517 418.989 230.822 417.76 230.86C418.087 224.524 417.523 217.175 412.117 213.01C409.745 211.301 406.952 210.273 404.039 210.035C399.317 209.44 394.594 209.173 389.872 208.488C387.852 208.191 385.803 207.834 383.784 207.447V207.269C382.143 198.173 381.505 188.925 381.883 179.69C381.883 179.452 381.497 179.363 381.437 179.69C380.342 188.912 380.783 198.252 382.744 207.328C370.656 205.037 358.984 201.586 347.104 198.165L347.223 198.195ZM325.69 192.245C325.971 190.838 326.766 189.586 327.918 188.734C328.818 188.156 329.878 187.879 330.946 187.943C332.013 188.007 333.033 188.409 333.858 189.091C334.762 189.867 335.413 190.898 335.726 192.049C336.038 193.2 335.998 194.419 335.61 195.547C335.194 196.945 332.967 201.081 331.185 197.778C331.292 197.537 331.381 197.289 331.452 197.035C331.742 195.749 331.96 194.447 332.106 193.137C331.749 194.327 331.541 195.607 331.125 196.767C331.033 197.135 330.863 197.479 330.628 197.777C330.392 198.074 330.096 198.318 329.759 198.492C328.809 198.82 328.096 198.076 327.74 197.273C328.313 195.488 328.662 193.639 328.779 191.769C328.609 193.731 328.086 195.646 327.235 197.421C326.641 198.492 325.512 198.611 325.126 197.421C325.052 197.018 325.052 196.605 325.126 196.202C325.167 194.856 325.357 193.519 325.69 192.215V192.245ZM283.576 186.295C283.843 186.563 284.081 186.86 284.348 187.187C284.35 187.233 284.366 187.276 284.392 187.313C284.418 187.35 284.454 187.379 284.496 187.396C285.118 188.191 285.6 189.086 285.922 190.043C286.308 191.233 287.11 194.179 284.645 193.018C283.901 191.964 283.077 190.97 282.18 190.043C282.002 190.043 282.18 190.043 282.18 190.043C282.714 190.995 286.962 196.856 282.18 195.547C281.724 194.167 280.997 192.893 280.041 191.799C279.989 191.761 279.926 191.742 279.861 191.744C279.797 191.746 279.735 191.769 279.685 191.809C279.635 191.85 279.599 191.905 279.583 191.968C279.567 192.03 279.571 192.096 279.596 192.156C280.19 193.524 283.516 198.641 279.596 197.273C277.364 195.953 275.725 193.822 275.022 191.323C274.566 190.205 274.527 188.961 274.912 187.816C275.297 186.672 276.079 185.705 277.117 185.092C278.155 184.478 279.379 184.259 280.565 184.474C281.75 184.69 282.819 185.325 283.576 186.265V186.295ZM168.251 120.488C169.683 120.483 171.101 120.771 172.418 121.334C173.736 121.897 174.925 122.722 175.913 123.76C175.379 119.476 168.904 113.378 168.904 113.378C161.331 113.556 162.964 106.059 162.964 106.059C163.306 105.269 163.833 104.573 164.501 104.031C165.169 103.488 165.957 103.115 166.799 102.943C167.642 102.77 168.513 102.804 169.34 103.041C170.166 103.278 170.923 103.711 171.547 104.304C171.547 105.226 173.151 109.451 175.468 109.629C177.784 109.808 176.953 112.247 176.953 112.247C176.953 112.247 178.675 110.016 176.953 108.766C175.23 107.517 175.082 104.274 175.082 104.274C184.823 103.382 191.684 79.9088 191.684 79.9088C194.179 92.9095 208.257 93.1475 208.257 93.1475C208.28 100.864 207.823 108.574 206.89 116.234C206.486 118.553 205.319 120.671 203.576 122.25C201.832 123.829 199.612 124.78 197.268 124.95C197.268 124.95 197.268 132.745 197.683 134.917C194.447 137.714 190.315 139.253 186.041 139.253C181.767 139.253 177.635 137.714 174.399 134.917V131.942C175.777 132.038 177.162 131.978 178.527 131.763C170.211 130.127 168.251 120.488 168.251 120.488ZM172.824 137.892C175.794 143.425 192.634 146.817 199.554 136.761C202.828 136.782 206.095 137.061 209.326 137.594C207.039 161.186 172.201 162.019 163.914 141.819C166.795 140.45 169.795 139.171 172.824 137.892ZM120.671 232.05C104.782 208.964 116.543 177.876 135.105 160.085C143.292 152.582 152.705 146.544 162.934 142.235C166.32 153.034 179.774 158.449 190.377 157.11C195.414 156.636 200.14 154.455 203.773 150.929C207.407 147.403 209.732 142.741 210.365 137.713C218.864 139.199 226.958 142.453 234.125 147.263C241.668 152.362 248.346 158.64 253.905 165.857C261.093 174.99 265.162 186.057 269.439 196.797C262.281 201.765 253.876 206.971 245.263 211.85C243.778 210.72 240.392 207.715 239.709 207.09C239.935 198.277 238.062 189.537 234.244 181.594H233.947C240.065 196.737 238.372 209.411 238.64 215.361C222.958 223.81 207.811 230.563 200.03 232.229C200.03 232.229 200.03 231.783 199.792 231.723C187.348 227.588 150.252 214.349 150.193 214.349C150.961 209.371 151.467 204.356 151.708 199.325C151.708 199.325 151.47 199.325 151.47 199.504C150.193 204.413 150.015 209.738 149.213 214.766C149.198 214.857 149.209 214.95 149.246 215.034C149.283 215.119 149.344 215.191 149.421 215.242C165.578 222.233 182.625 227.142 199.376 232.467C199.77 238.14 199.51 243.84 198.604 249.454C172.26 251.864 138.194 257.487 120.671 232.05ZM244.342 212.386C242.679 213.338 240.986 214.26 239.323 215.152C239.501 212.921 239.62 210.571 239.649 208.161C241.062 209.73 242.635 211.146 244.342 212.386ZM200.356 236.691C201.343 237.11 202.403 237.326 203.475 237.326C204.546 237.326 205.607 237.11 206.593 236.691C208.791 235.531 209.89 233.121 211.88 231.664C212.01 233.29 211.569 234.91 210.633 236.245C210.425 236.513 210.633 236.84 211.048 236.81C213.068 237.108 217.256 236.305 218.711 237.495C220.76 239.131 213.454 239.845 211.583 240.083C211.286 240.083 211.375 240.559 211.583 240.589C213.893 240.575 216.187 240.203 218.384 239.488C220.137 243.95 212.741 242.939 211.345 243.445C211.286 243.464 211.234 243.502 211.197 243.553C211.161 243.603 211.141 243.665 211.141 243.727C211.141 243.79 211.161 243.851 211.197 243.902C211.234 243.952 211.286 243.99 211.345 244.01C213.076 244.128 214.815 244.008 216.513 243.653C218.087 247.372 203.564 250.287 199.911 245.349C200.315 242.482 200.464 239.585 200.356 236.691ZM155.004 291.55C155.004 291.372 155.391 291.55 155.361 291.55C154.618 302.855 147.49 348.849 145.322 360.481C145.322 360.808 144.788 360.659 144.847 360.481C146.391 348.997 152.747 302.974 155.004 291.55ZM131.393 366.907C134.496 368.465 137.69 369.836 140.956 371.013C140.956 371.875 141.135 373.065 141.224 374.404C133.858 373.69 126.849 375.148 119.513 374.642C119.513 371.994 119.305 367.115 119.305 367.115C121.295 367.056 126.908 366.937 131.393 366.996V366.907ZM133.561 375.475H141.075C141.342 379.075 141.639 384.013 141.936 389.309C139.3 388.937 136.632 388.847 133.977 389.041C134.12 384.546 134.01 380.047 133.65 375.564L133.561 375.475ZM132.819 389.011C132.492 389.011 123.909 389.011 120.018 389.19C120.018 385.62 119.513 376.576 119.513 375.624C123.904 375.919 128.309 375.919 132.7 375.624C132.173 380.103 132.212 384.631 132.819 389.1V389.011ZM17.3449 350.812C44.0749 327.429 69.9733 305.235 97.2973 282.387C107.425 291.312 118.592 299.285 129.462 307.407C126.106 323.026 122.424 340.132 120.285 349.979C92.9314 350.455 34.066 351.05 17.3449 350.812ZM22.3939 448.779C22.5829 444.618 22.324 440.449 21.6217 436.343C31.5712 437.533 120.998 436.522 145.53 436.135C145.708 439.11 146.005 443.126 146.302 447.529C118.8 447.529 42.6493 448.243 22.3939 448.779ZM90.3475 408.736C95.7821 408.309 101.239 408.24 106.682 408.527C106.682 408.527 106.683 430.78 107.158 435.6L90.9118 435.867C90.6742 426.556 90.9118 417.988 90.3475 408.736ZM163.231 489.06C146.718 491.887 136.947 490.25 131.749 490.578C131.541 489.239 133.739 486.175 134.719 485.431C135.699 484.687 148.5 478.559 148.5 478.559C152.51 485.847 160.796 482.337 163.35 481.058C164.02 483.723 164.02 486.514 163.35 489.179L163.231 489.06ZM173.656 436.79C163.439 441.282 153.312 438.456 145.203 431.167L145.441 434.856L108.257 435.451C108.696 426.162 108.428 416.853 107.455 407.605C107.455 407.605 94.8619 405.909 89.2486 407.397C89.0704 407.397 89.3971 426.437 89.6347 435.748L33.2047 435.54C33.2047 435.54 32.1949 379.878 30.6208 352.24C43.273 352.627 94.3273 351.645 120.137 351.11L118.562 358.339C121.775 361.331 125.371 363.882 129.255 365.925C125.745 365.555 122.198 365.797 118.77 366.639C118.751 366.707 118.751 366.779 118.77 366.848C118.147 374.576 118.266 382.347 119.127 390.052C119.127 390.052 119.335 390.409 119.483 390.409C123.166 390.647 137.986 389.963 142.323 390.588C143.006 402.875 143.808 416.768 144.58 421.528C144.58 421.528 145.441 430.84 145.59 430.929C149.777 433.904 160.113 442.204 173.508 436.284C173.775 436.076 174.042 436.76 173.656 436.909V436.79ZM176.181 425.247C163.35 428.4 149.094 422.926 145.53 421.32C144.342 412.633 143.629 379.104 141.818 371.37C156.409 376.267 171.723 378.651 187.11 378.42C184.794 385.858 177.814 417.303 176.181 425.425V425.247ZM171.785 324.097C171.806 324.03 171.847 323.972 171.903 323.931C171.959 323.889 172.027 323.867 172.097 323.867C172.166 323.867 172.234 323.889 172.29 323.931C172.346 323.972 172.388 324.03 172.409 324.097C172.409 334.331 172.735 344.594 172.409 354.828C172.409 355.126 171.933 355.126 171.904 354.828C171.458 344.743 171.755 334.479 171.785 324.275V324.097ZM194.446 260.67C187.793 261.027 155.836 262.514 146.659 257.992H146.51C144.172 255.582 142.763 252.42 142.53 249.067C143.778 249.514 145.085 249.9 146.362 250.257C162.37 254.452 179.032 251.983 195.159 250.525C194.703 253.938 194.465 257.376 194.446 260.819V260.67ZM226.433 428.728C223.463 420.189 214.791 385.055 211.197 376.814C214.167 376.457 220.493 375.356 222.72 374.969C225.69 381.187 229.254 387.196 232.521 393.236C235.788 399.275 239.263 405.76 242.857 411.859C245.827 416.768 248.797 421.588 252.094 426.229C242.144 433.22 230.353 430.185 226.433 428.876V428.728ZM269.528 487.127C260.113 487.335 252.628 488.079 242.798 487.543C242.099 484.287 241.989 480.932 242.471 477.636C251.678 485.282 255.361 475.346 255.361 475.346C257.41 477.25 269.439 482.813 269.528 487.275V487.127ZM387.971 455.889C394.654 457.853 404.069 456.573 410.662 455.205C410.365 457.674 412.296 466.569 401.396 467.819C387.793 469.574 388.565 458.358 387.971 456.038V455.889ZM397.119 482.991C393.347 483.616 378.378 485.966 377.339 479.63C378.466 480.386 379.784 480.809 381.14 480.849C386.308 481.266 411.167 476.744 412.563 475.078C414.137 481.653 401.188 482.486 397.119 483.14V482.991ZM412.563 474.423C410.989 475.881 390.555 479.511 386.338 479.838C382.12 480.165 374.695 480.82 377.814 474.364C378.47 473.067 379.299 471.866 380.279 470.794C381.506 472.011 382.806 473.154 384.17 474.215C384.526 474.453 384.882 474.037 384.704 473.68C383.772 472.177 382.433 470.97 380.843 470.199C381.705 469.306 382.685 468.414 383.665 467.581C384.259 468.057 386.367 470.377 387.021 470.764C387.088 470.803 387.165 470.822 387.243 470.816C387.32 470.811 387.394 470.782 387.455 470.734C387.516 470.686 387.561 470.62 387.584 470.546C387.607 470.472 387.608 470.392 387.585 470.318C386.927 468.873 385.795 467.698 384.378 466.986L386.546 465.231C388.12 466.242 389.516 467.492 391.06 468.563C391.268 468.563 391.535 468.563 391.387 468.265C390.216 466.798 388.735 465.609 387.051 464.784C387.639 464.304 388.254 463.857 388.892 463.446C390.206 465.164 391.901 466.553 393.843 467.502C395.785 468.452 397.921 468.935 400.081 468.915C402.242 468.895 404.369 468.371 406.293 467.386C408.217 466.401 409.885 464.98 411.167 463.237C413.305 465.499 412.563 472.638 412.563 474.572V474.423ZM417.76 354.799C415.503 383.27 382.417 438.515 382.417 438.515V439.229C365.31 464.1 342.59 478.975 333.769 486.085C321.354 482.367 310.187 475.137 299.525 467.938C288.051 460.578 277.266 452.194 267.3 442.888C257.818 433.177 249.686 422.23 243.124 410.342C236.234 398.442 230.413 386.007 223.225 374.374C220.255 368.008 196.881 314.398 195.664 260.759C195.935 257.394 195.985 254.015 195.812 250.644L198.604 250.406C198.789 250.289 198.925 250.109 198.99 249.9C199.324 248.688 199.582 247.456 199.762 246.211C201.347 247.319 203.158 248.06 205.064 248.379C206.97 248.698 208.923 248.587 210.781 248.056C212.949 247.58 218.295 246.568 217.196 243.266C217.533 243.139 217.853 242.969 218.147 242.76C218.457 242.602 218.723 242.37 218.923 242.084C219.124 241.799 219.251 241.469 219.295 241.123C219.339 240.777 219.298 240.425 219.175 240.099C219.053 239.773 218.853 239.481 218.592 239.25C219.661 238.714 220.137 237.971 219.305 236.929C218.859 236.558 218.341 236.284 217.784 236.125C217.226 235.967 216.642 235.926 216.068 236.007C214.478 235.987 212.89 236.086 211.316 236.305C212.385 234.817 212.949 229.7 211.494 230.593C210.162 231.625 208.999 232.859 208.049 234.252C205.821 236.81 203.237 236.543 200.208 236.067C200.208 235.025 200.208 233.984 199.941 233.092C205.919 232.333 211.719 230.53 217.077 227.766C224.027 224.791 257.737 209.232 275.319 193.881C275.779 194.921 276.45 195.855 277.288 196.623C278.126 197.391 279.114 197.977 280.19 198.344C282.15 198.79 282.507 197.659 282.21 196.231C282.421 196.385 282.667 196.485 282.925 196.524C283.183 196.563 283.447 196.539 283.695 196.454C283.942 196.37 284.165 196.227 284.346 196.038C284.527 195.849 284.66 195.62 284.734 195.369C284.956 194.753 284.956 194.08 284.734 193.465C285.803 194.03 286.575 194.119 286.902 192.84C287.011 191.802 286.909 190.754 286.603 189.757C286.297 188.76 285.792 187.835 285.12 187.039C287.229 185.373 289.189 183.558 291.268 181.862C295.515 178.471 300.713 182.427 304.96 184.242C311.434 187.039 324.681 192.721 324.77 192.602C324.581 193.396 324.442 194.2 324.354 195.012C324.354 196.112 323.73 198.225 325.156 198.79C326.076 199.147 326.76 198.611 327.235 197.719C327.321 198.015 327.474 198.287 327.683 198.514C327.892 198.741 328.151 198.916 328.439 199.025C328.726 199.135 329.036 199.176 329.342 199.145C329.649 199.115 329.944 199.013 330.205 198.849C330.43 198.703 330.63 198.522 330.799 198.314C331.601 199.623 333.086 200.337 334.303 199.147C335.268 198.218 335.966 197.047 336.323 195.755C351.423 201.042 366.889 205.218 382.596 208.25C390.05 209.649 397.653 209.916 405.108 211.225C415.147 212.921 417.315 221.995 416.988 230.86C416.264 230.821 415.547 230.702 414.85 230.503C413.313 230.027 411.806 229.46 410.335 228.808C410.335 228.808 410.157 228.808 410.157 228.986C409.858 230.164 409.952 231.407 410.424 232.526C410.693 233.399 411.275 234.141 412.058 234.609C410.299 235.527 408.735 236.78 407.454 238.298C406.593 239.19 404.187 241.273 404.484 242.76C404.781 244.248 406.326 243.831 407.454 243.504C407.334 243.77 407.282 244.062 407.305 244.352C407.328 244.643 407.424 244.924 407.584 245.167C407.744 245.411 407.963 245.61 408.221 245.746C408.479 245.882 408.767 245.95 409.058 245.944H409.979C411.82 248.026 414.493 246.301 416.364 245.081L418.83 243.504C418.83 250.614 419.928 257.754 420.582 264.835C421.057 270.279 421.295 275.813 422.007 281.257C423.433 322.133 419.988 326.536 417.76 354.948V354.799ZM423.017 281.049C422.631 275.099 421.8 269.149 421.295 263.199C420.701 256.445 420.463 249.543 419.394 242.85C421.688 241.379 423.793 239.63 425.661 237.643C427.175 240.053 428.779 242.403 430.205 244.694C430.606 244.941 431.049 245.112 431.511 245.2C430.977 251.15 433.858 274.028 434.927 282.179C429.165 282.001 424.888 281.465 423.017 281.197V281.049ZM435.491 282.239C434.868 273.968 433.264 251.15 432.521 245.2C453.489 244.873 475.764 239.071 490.882 224.048C491.208 233.33 494.089 261.116 494.238 265.698C494.452 267.116 494.305 268.565 493.812 269.912C493.319 271.259 492.495 272.459 491.416 273.403C472.705 282.625 449.777 283.191 435.491 282.387V282.239ZM477.071 479.362C472.29 481.534 462.667 485.758 459.459 479.719C461.137 479.865 462.828 479.704 464.449 479.243C473.332 477.527 481.729 473.87 489.04 468.533C492.278 472.073 478.942 478.588 476.923 479.511L477.071 479.362ZM488.743 467.789C481.867 472.929 473.915 476.438 465.488 478.053C462.845 478.588 458.598 479.63 458.063 476.089C458.15 474.78 458.626 473.526 459.429 472.49C459.756 471.895 460.142 471.329 460.528 470.764C461.601 471.337 462.534 472.139 463.261 473.114C463.587 473.352 463.884 472.906 463.766 472.609C463.106 471.524 462.117 470.68 460.944 470.199C461.508 469.425 462.102 468.682 462.696 467.938C464.805 468.801 465.369 470.467 465.993 470.913C466.617 471.359 466.528 470.913 466.439 470.586C465.69 469.215 464.553 468.097 463.172 467.373L464.686 465.528C466.944 466.926 467.656 468.741 468.31 469.366C468.577 469.574 469.112 469.366 468.963 468.979C468.172 467.267 466.903 465.821 465.31 464.814L466.884 462.851C470.389 468.801 483.873 465.826 484.377 458.983C486.071 461.824 487.483 464.823 488.595 467.938L488.743 467.789ZM482.209 451.248C482.803 453.45 487.11 462.821 475.616 464.903C467.627 466.361 464.568 456.811 464.389 456.425C470.613 456.299 476.7 454.567 482.061 451.397L482.209 451.248ZM558.36 405.731C556.964 405.106 556.964 403.916 556.459 402.756C555.791 400.826 554.904 398.98 553.816 397.252C548.916 390.707 538.966 392.492 532.64 396.062C531.066 397.007 529.732 398.305 528.742 399.854C527.753 401.402 527.135 403.159 526.938 404.987C526.903 405.784 526.823 406.579 526.7 407.367C526.136 409.36 525.69 409.301 523.552 409.568C520.79 409.926 495.782 411.651 481.645 412.067C479.418 399.037 477.22 386.126 476.269 380.86C474.858 374.934 474.626 368.788 475.586 362.772C479.189 357.371 481.925 351.439 483.694 345.19C492.931 344.565 513.394 342.78 518.622 344.148C525.126 345.933 528.601 351.467 531.006 357.357C533.412 363.248 535.254 369.793 537.333 375.654C537.333 375.891 537.956 376.01 538.045 376.01C543.213 376.01 548.5 375.267 553.668 375.029C558.835 374.791 565.785 372.827 570.181 376.1C573.398 379.109 575.406 383.194 575.824 387.583C576.852 393.326 577.349 399.152 577.309 404.987C572.082 404.809 559.192 406.118 558.36 405.731Z" fill="black"/>
<path d="M549.955 420.963C550.961 420.161 551.793 419.162 552.4 418.027C553.008 416.892 553.379 415.645 553.49 414.362C553.601 413.079 553.45 411.786 553.047 410.563C552.643 409.341 551.996 408.213 551.143 407.249C549.312 404.955 546.763 403.346 543.907 402.682C541.051 402.018 538.055 402.338 535.402 403.589C529.284 407.219 531.125 414.865 533.917 418.732C537.125 423.135 545.56 423.938 549.955 420.963ZM535.877 404.601C537.665 403.73 539.657 403.366 541.636 403.55C543.615 403.733 545.507 404.457 547.104 405.642C551.262 408.349 553.876 414.775 550.074 418.881C547.104 422.064 539.917 421.856 536.62 419.327C530.264 414.537 532.581 406.207 535.877 404.601Z" fill="black"/>
<path d="M543.51 413.526C544.054 412.969 544.359 412.222 544.359 411.443C544.359 410.664 544.054 409.917 543.51 409.361C542.959 408.842 542.232 408.553 541.476 408.553C540.72 408.553 539.992 408.842 539.441 409.361C539.163 409.594 538.936 409.882 538.773 410.207C538.611 410.531 538.517 410.886 538.498 411.249C538.478 411.612 538.534 411.975 538.66 412.315C538.787 412.656 538.982 412.966 539.233 413.228C539.49 413.536 539.806 413.789 540.162 413.972C540.519 414.154 540.909 414.263 541.308 414.29C541.708 414.318 542.109 414.265 542.487 414.133C542.866 414.002 543.214 413.795 543.51 413.526ZM542.292 409.985C542.516 410.072 542.716 410.21 542.876 410.389C543.036 410.569 543.151 410.783 543.212 411.016C543.273 411.248 543.278 411.491 543.226 411.726C543.175 411.961 543.069 412.18 542.916 412.365C539.916 415.549 538.164 408.617 542.233 409.926L542.292 409.985ZM516.156 354.383C510.216 349.801 498.99 352.955 492.664 354.859C492.598 354.866 492.538 354.897 492.494 354.947C492.45 354.996 492.426 355.06 492.426 355.126C492.961 362.118 494.594 369.555 495.693 376.487C495.693 376.487 514.315 374.137 523.552 374.166C523.789 374.166 524.235 374.166 524.205 373.839C523.344 367.175 521.829 358.786 516.156 354.383ZM496.525 375.208C495.545 368.782 495.129 362.147 493.852 355.751C500.118 354.561 510.513 351.199 515.889 356.049C520.582 360.243 521.651 367.026 522.542 372.947C518.206 372.947 500.861 374.553 496.525 375.267V375.208ZM546.302 432.744C537.689 427.538 525.75 429.293 516.602 432.744C511.793 434.503 507.277 436.98 503.207 440.092C500.029 442.562 497.059 445.447 497.713 449.761C497.713 450.416 502.613 466.034 502.702 466.064C510.632 471.151 522.393 470.824 531.185 468.712C536.071 467.555 540.75 465.649 545.055 463.059C548.902 460.662 552.055 457.298 554.202 453.301C554.202 453.301 553.43 443.395 553.4 443.157C553.147 440.975 552.369 438.888 551.132 437.074C549.896 435.26 548.238 433.775 546.302 432.744ZM501.009 443.722C504.717 439.822 509.226 436.777 514.226 434.797C523.789 430.543 537.451 429.115 545.381 433.785C550.519 436.76 553.965 443.038 550.193 448.66C547.027 452.436 542.932 455.318 538.313 457.02C528.957 461.215 515.978 464.577 506.504 459.013C501.425 456.038 496.525 449.226 501.009 443.722ZM543.094 462.613C539.268 464.72 535.17 466.292 530.917 467.284C522.033 469.627 512.62 468.915 504.187 465.261C504.187 465.261 501.96 458.597 500.861 455.324C502.909 457.778 505.486 459.735 508.397 461.049C511.308 462.363 514.479 462.999 517.671 462.911C528.101 462.644 538.218 459.29 546.747 453.272C549.056 451.795 550.883 449.676 552.004 447.173C552.272 449.077 552.509 452.974 552.509 453.123C550.289 457.084 547.034 460.364 543.094 462.613Z" fill="black"/>
<path d="M520.314 455.89L519.423 457.466C519.096 458.061 520.017 458.597 520.344 458.002L521.353 456.247C522.354 456.549 523.411 456.615 524.442 456.439C525.473 456.264 526.448 455.852 527.293 455.235C527.798 454.848 527.294 454.075 526.64 454.372C525.223 455.165 523.57 455.429 521.977 455.116C523.7 452.141 525.541 449.434 527.412 446.697C528.095 446.697 528.778 446.697 529.491 446.875C530.829 447.087 532.198 446.877 533.412 446.275C534.625 445.673 535.621 444.708 536.263 443.514C536.67 442.438 536.728 441.261 536.43 440.15C536.131 439.04 535.491 438.051 534.6 437.326L534.154 437.028L535.164 435.481C535.182 435.46 535.195 435.435 535.203 435.408C535.211 435.382 535.213 435.354 535.211 435.326C535.208 435.299 535.2 435.272 535.187 435.247C535.174 435.223 535.156 435.201 535.134 435.184C535.113 435.166 535.088 435.153 535.062 435.145C535.035 435.137 535.007 435.134 534.98 435.137C534.952 435.14 534.925 435.148 534.901 435.161C534.876 435.174 534.855 435.192 534.837 435.213C534.362 435.689 533.887 436.165 533.441 436.671C531.858 436.219 530.195 436.126 528.571 436.399C526.948 436.671 525.405 437.303 524.056 438.248C523.789 438.426 524.056 438.902 524.294 438.783C525.805 438.098 527.405 437.627 529.046 437.385C530.23 437.244 531.431 437.334 532.58 437.653C530.43 440.169 528.446 442.822 526.64 445.596C523.522 445.269 519.928 445.031 517.73 447.917C517.236 448.573 516.907 449.34 516.771 450.151C516.635 450.962 516.697 451.794 516.951 452.577C517.204 453.359 517.642 454.069 518.228 454.645C518.813 455.222 519.529 455.649 520.314 455.89ZM533.53 437.831C534.283 438.084 534.914 438.608 535.304 439.3C535.693 439.992 535.813 440.804 535.639 441.58C534.867 445.566 531.422 445.894 528.214 445.626C529.996 443.038 531.778 440.449 533.53 437.831ZM522.72 446.399C523.707 446.289 524.703 446.289 525.69 446.399C523.937 449.107 522.304 451.903 520.73 454.64C515.324 452.201 518.473 446.905 522.72 446.399ZM193.258 513.515C192.245 510.824 190.598 508.418 188.457 506.501C186.316 504.585 183.745 503.215 180.962 502.508C172.689 500.39 163.969 500.836 155.954 503.787C149.005 505.989 138.134 512.147 140.332 521.131C140.6 523.035 144.253 536.72 144.46 536.72C151.529 543.979 163.528 543.771 172.765 542.67C180.962 541.57 192.604 538.565 195.812 529.759C195.276 524.382 194.443 519.038 193.317 513.753C193.333 513.735 193.344 513.714 193.35 513.69C193.356 513.667 193.356 513.642 193.35 513.619C193.344 513.595 193.333 513.574 193.316 513.556C193.3 513.538 193.28 513.524 193.258 513.515ZM142.203 514.676C145.124 509.991 149.691 506.573 155.004 505.096C163.227 501.963 172.206 501.403 180.754 503.49C186.516 504.828 193.822 510.511 192.634 517.234C191.624 523.452 186.694 526.159 181.378 528.212C171.691 532.466 160.779 532.996 150.727 529.699C144.49 527.26 138.342 521.786 142.203 514.676ZM171.309 541.659C166.676 542.27 161.983 542.27 157.35 541.659C152.893 540.833 148.661 539.069 144.936 536.482C144.936 536.482 143.332 528.926 142.411 525.326C146.985 531.008 156.875 532.526 163.35 532.526C168.794 532.518 174.197 531.583 179.328 529.759C183.709 528.612 187.733 526.382 191.03 523.273C192.001 522.169 192.747 520.886 193.228 519.495C193.644 522.857 194.921 529.491 194.921 529.491C189.337 537.583 180.724 540.409 171.309 541.451V541.659Z" fill="black"/>
<path d="M161.39 526.278L160.707 527.349C160.499 527.677 161.004 528.093 161.241 527.766L162.103 526.606C163.309 527.124 164.618 527.362 165.93 527.3C167.242 527.238 168.523 526.879 169.676 526.249C170.122 525.981 169.854 525.207 169.32 525.386C167.214 526.206 164.897 526.311 162.726 525.683C164.479 523.036 168.369 516.044 168.815 515.39C171.488 515.687 174.339 515.777 176.002 513.278C176.407 512.848 176.699 512.324 176.851 511.754C177.004 511.183 177.013 510.583 176.878 510.009C176.743 509.434 176.467 508.901 176.076 508.459C175.684 508.017 175.19 507.68 174.636 507.476L175.2 506.673C175.408 506.405 174.992 506.138 174.755 506.346L173.893 507.179C172.664 506.704 171.34 506.527 170.029 506.661C168.718 506.796 167.458 507.238 166.35 507.952C166.112 508.161 166.35 508.458 166.676 508.339C168.175 507.701 169.803 507.426 171.428 507.536C172.038 507.577 172.638 507.708 173.21 507.923C171.37 509.912 169.738 512.086 168.34 514.408C166.966 514.098 165.557 513.978 164.152 514.051C162.811 514.195 161.535 514.704 160.462 515.522C159.389 516.34 158.559 517.436 158.063 518.692C157.525 520.142 157.571 521.744 158.192 523.16C158.813 524.577 159.96 525.695 161.39 526.278ZM174.012 508.428C176.596 510.065 175.854 513.783 171.607 514.587C170.878 514.691 170.138 514.691 169.409 514.587C170.864 512.415 172.438 510.392 174.012 508.339V508.428ZM167.805 515.39C165.785 518.692 164.003 522.143 161.865 525.416C161.2 525.064 160.618 524.574 160.157 523.979C159.696 523.384 159.367 522.697 159.192 521.965C157.796 516.193 163.35 514.854 167.805 515.301V515.39ZM108.583 462.97C100.873 458.908 92.018 457.576 83.4569 459.192C76.2992 459.995 64.4489 463.982 64.9835 473.115C64.9835 474.96 65.6963 489.002 65.8745 489.061C71.2502 497.391 82.5956 499.712 91.7432 500.455C100.119 501.14 112.533 500.753 117.582 492.572L118.384 476.298C117.918 473.459 116.787 470.771 115.083 468.454C113.38 466.137 111.152 464.258 108.583 462.97ZM116.78 492.334C109.801 498.879 101.039 500.009 91.7432 499.265C87.0576 499 82.4258 498.13 77.9624 496.677C73.5968 494.955 69.6554 492.306 66.4091 488.912C66.4091 488.912 66.4091 481.207 66.2012 477.518C69.6167 484.212 79.388 487.752 85.9814 489.031C91.152 490.022 96.4501 490.153 101.663 489.418C106.107 489.152 110.419 487.804 114.226 485.491C115.42 484.593 116.429 483.472 117.196 482.189C116.869 485.551 116.78 492.334 116.78 492.334ZM117.434 478.708C115.681 484.956 110.246 486.86 104.514 487.99C94.1807 490.308 83.3579 488.775 74.0717 483.676C68.5475 480.404 63.053 474.246 67.5377 467.76C69.2481 465.642 71.3641 463.887 73.7614 462.599C76.1586 461.312 78.7886 460.518 81.4967 460.263C90.5447 458.4 99.9551 459.625 108.227 463.744C113.068 466.183 119.156 472.669 117.434 478.708Z" fill="black"/>
<path d="M101.575 466.332L102.079 465.886C102.317 465.677 102.079 465.291 101.723 465.439L101.01 465.915C99.8233 465.288 98.5214 464.909 97.1836 464.801C95.8459 464.694 94.5003 464.86 93.2288 465.291C93.1727 465.319 93.1281 465.366 93.1031 465.423C93.078 465.481 93.074 465.545 93.0917 465.606C93.1094 465.666 93.1477 465.718 93.1999 465.753C93.2521 465.788 93.3149 465.803 93.3773 465.796C95.6381 465.426 97.9569 465.672 100.09 466.51C98.0351 467.97 96.1255 469.623 94.3871 471.449L92.6942 471.211C91.2902 470.781 89.8071 470.675 88.3564 470.902C86.9057 471.128 85.5253 471.682 84.3188 472.52C83.5552 473.09 82.9397 473.836 82.5242 474.695C82.1088 475.553 81.9056 476.5 81.9318 477.453C81.958 478.407 82.2129 479.341 82.6748 480.175C83.1368 481.01 83.7923 481.721 84.5861 482.248L83.6951 483.17C83.3684 483.468 83.8436 483.914 84.2 483.646L85.2098 482.724C86.2603 483.53 87.4948 484.061 88.8015 484.268C90.1083 484.476 91.4462 484.354 92.6942 483.914C92.7901 483.862 92.8651 483.778 92.9067 483.677C92.9482 483.576 92.9538 483.464 92.9224 483.359C92.8911 483.254 92.8247 483.164 92.7345 483.102C92.6442 483.041 92.5356 483.012 92.4269 483.022C90.2689 483.279 88.0826 482.907 86.1305 481.951C88.5362 479.6 94.0604 473.204 94.6841 472.609C96.576 472.995 98.5332 472.913 100.387 472.371C101.239 472.146 101.972 471.599 102.432 470.845C102.891 470.091 103.042 469.188 102.852 468.325C102.663 467.535 102.212 466.833 101.575 466.332ZM85.3286 481.475C84.7959 481.176 84.3287 480.773 83.9549 480.289C83.5812 479.805 83.3085 479.251 83.1533 478.66C82.9981 478.069 82.9634 477.452 83.0514 476.847C83.1394 476.242 83.3482 475.66 83.6654 475.138C85.2989 471.836 88.5659 471.687 91.7438 472.163L93.4664 472.431C90.6746 475.346 88.1204 478.529 85.3286 481.475ZM98.3372 471.627C97.4385 471.717 96.5332 471.717 95.6345 471.627C97.3274 470.051 99.1094 468.652 100.862 467.016C101.181 467.263 101.434 467.585 101.6 467.954C101.765 468.322 101.838 468.725 101.812 469.128C101.782 471.151 99.8816 471.508 98.3372 471.627Z" fill="black"/>
</svg>
